PathFileType	4	(X/Y/Z)	C:\Users\s5001683\Documents\PhD\FASHiON\BaselineData\3. CleanedGaitData\ElaboratedData\FAS-906\Session 1\staticElaborations\StaticCalibration\Static\\StaticCalibration.trc
DataRate	CameraRate	NumFrames	NumMarkers	Units	OrigDataRate	DataStartFrame
120	120	4	90	mm	120	2
Frame#	Time	RFHD			LFHD			RBHD			LBHD			C7			T10			CLAV			STRN			RASI			LASI			RPSI			LPSI			RTH1			RTH2			RTH3			RTH4			RTH5			RTH6			RMFC			RLFC			RTB1			RTB2			RTB3			RTB4			RTB5			RTB6			RMMAL			RLMAL			RCAL			RMT1			RMT23			RMT5			LMT1			LMT23			LMT5			LCAL			LMMAL			LLMAL			LTB1			LTB2			LTB3			LTB4			LTB5			LTB6			LMFC			LLFC			LTH1			LTH2			LTH3			LTH4			LTH5			LTH6			LACR			LASH			LPSH			LUA1			LUA2			LUA3			LMEL			LLEL			LFA1			LFA3			LFA2			LWRU			LWRR			RACR			RASH			RPSH			RUA1			RUA2			RUA3			RMEL			RLEL			RFA1			RFA2			RFA3			RWRU			RWRR			LAJC			RAJC			LEJC			REJC			LHJC			RHJC			LKJC			RKJC			LSJC			RSJC			LWJC			RWJC		
		X1	Y1	Z1	X2	Y2	Z2	X3	Y3	Z3	X4	Y4	Z4	X5	Y5	Z5	X6	Y6	Z6	X7	Y7	Z7	X8	Y8	Z8	X9	Y9	Z9	X10	Y10	Z10	X11	Y11	Z11	X12	Y12	Z12	X13	Y13	Z13	X14	Y14	Z14	X15	Y15	Z15	X16	Y16	Z16	X17	Y17	Z17	X18	Y18	Z18	X19	Y19	Z19	X20	Y20	Z20	X21	Y21	Z21	X22	Y22	Z22	X23	Y23	Z23	X24	Y24	Z24	X25	Y25	Z25	X26	Y26	Z26	X27	Y27	Z27	X28	Y28	Z28	X29	Y29	Z29	X30	Y30	Z30	X31	Y31	Z31	X32	Y32	Z32	X33	Y33	Z33	X34	Y34	Z34	X35	Y35	Z35	X36	Y36	Z36	X37	Y37	Z37	X38	Y38	Z38	X39	Y39	Z39	X40	Y40	Z40	X41	Y41	Z41	X42	Y42	Z42	X43	Y43	Z43	X44	Y44	Z44	X45	Y45	Z45	X46	Y46	Z46	X47	Y47	Z47	X48	Y48	Z48	X49	Y49	Z49	X50	Y50	Z50	X51	Y51	Z51	X52	Y52	Z52	X53	Y53	Z53	X54	Y54	Z54	X55	Y55	Z55	X56	Y56	Z56	X57	Y57	Z57	X58	Y58	Z58	X59	Y59	Z59	X60	Y60	Z60	X61	Y61	Z61	X62	Y62	Z62	X63	Y63	Z63	X64	Y64	Z64	X65	Y65	Z65	X66	Y66	Z66	X67	Y67	Z67	X68	Y68	Z68	X69	Y69	Z69	X70	Y70	Z70	X71	Y71	Z71	X72	Y72	Z72	X73	Y73	Z73	X74	Y74	Z74	X75	Y75	Z75	X76	Y76	Z76	X77	Y77	Z77	X78	Y78	Z78	X79	Y79	Z79	X80	Y80	Z80	X81	Y81	Z81	X82	Y82	Z82	X83	Y83	Z83	X84	Y84	Z84	X85	Y85	Z85	X86	Y86	Z86	X87	Y87	Z87	X88	Y88	Z88	X89	Y89	Z89	X90	Y90	Z90	

315	2.616667	768.284668	1616.281128	-184.825302	775.318787	1617.207642	-290.878082	623.782166	1544.503540	-179.934891	621.777222	1545.553833	-319.222321	602.447388	1420.281494	-247.874603	603.200745	1125.550415	-250.739426	742.891296	1352.715576	-243.879059	797.812134	1146.848267	-243.041214	767.074951	941.949707	-107.293282	765.869934	947.425903	-378.704803	595.110718	971.908813	-183.744904	593.608948	983.540527	-294.554749	731.711243	719.422302	-58.064564	767.505127	652.209412	-96.763702	715.122620	591.903137	-83.106850	804.256775	728.458435	-156.731155	769.337708	673.135498	-213.109238	780.711121	597.216064	-170.107727	662.876282	447.845215	-222.006912	691.979065	451.387665	-104.839180	684.720154	332.953186	-186.171585	693.653381	269.226532	-119.827705	674.892578	202.495087	-175.505859	657.124451	350.858215	-84.633636	600.632019	287.045746	-106.200790	655.245667	221.416504	-100.980995	649.300842	107.211311	-203.910843	634.114441	87.555374	-123.275848	577.675903	67.101471	-168.960068	783.135193	48.552814	-199.694809	790.507935	57.629654	-158.659042	770.347534	47.037109	-105.736839	777.231934	55.069809	-306.617523	781.536072	57.290840	-360.137024	754.085022	38.851791	-402.386353	573.648071	63.805210	-323.488586	644.652161	98.208046	-286.898468	625.551270	94.825317	-364.323212	694.840149	371.355438	-304.090332	709.594604	305.295776	-355.430603	675.773804	241.474304	-309.958893	656.454468	315.336334	-407.821320	599.778931	254.583435	-380.565125	648.341736	185.961761	-381.715698	666.445251	436.842499	-276.302155	677.665649	450.998413	-395.770569	675.808716	736.017944	-438.960571	733.437134	676.639099	-417.474518	687.614441	607.782349	-409.797394	783.476990	810.387207	-395.957336	800.241638	741.767395	-340.889374	772.817627	672.609558	-390.802185	673.015076	1404.881226	-386.282562	753.011963	1286.920288	-395.692078	602.162354	1247.349365	-383.694519	661.999695	1292.647949	-470.018311	735.602356	1292.358887	-511.758759	743.922729	1204.548584	-531.970398	814.354553	1134.230469	-528.706604	813.243042	1168.543457	-581.078064	892.761475	1111.211182	-646.496887	935.318115	1144.907593	-616.965698	897.372437	1149.311646	-630.485596	980.403381	1069.535400	-692.912964	1016.423340	1072.627563	-641.650391	641.933899	1396.896851	-104.108780	735.078247	1289.627808	-103.471748	598.499756	1243.560669	-99.094719	634.648865	1286.011597	-26.203465	701.767761	1294.947266	25.785957	710.648621	1213.631470	57.230339	774.322815	1125.983643	59.622387	782.286194	1175.710938	113.070595	885.134766	1101.840332	180.128326	888.105652	1146.048584	156.678391	925.564575	1139.005981	137.078018	955.365479	1070.583740	208.442078	1002.145447	1089.830322	162.603836	635.101715	96.516682	-325.610840	641.707642	97.383343	-163.593346	813.798798	1151.386963	-554.892334	778.304504	1150.847290	86.346491	697.565535	865.790493	-341.190586	698.425653	861.881686	-147.462096	672.055450	443.920456	-336.036362	677.427673	449.616440	-163.423046	677.587158	1267.134827	-389.693298	666.789001	1266.594238	-101.283234	998.413361	1071.081482	-667.281677	978.755463	1080.207031	185.522957	
316	2.625000	768.290405	1616.280151	-184.703827	775.324890	1617.225098	-290.795685	623.815674	1544.497070	-179.792282	621.802795	1545.586060	-319.117126	602.455261	1420.304932	-247.762085	603.273193	1125.499146	-250.714661	742.923645	1352.742920	-243.781082	797.886475	1146.917969	-243.040833	767.060974	941.964905	-107.294655	765.843628	947.387146	-378.664124	595.115112	971.909119	-183.752151	593.621277	983.575134	-294.539825	731.768616	719.415649	-58.051235	767.495544	652.220642	-96.740425	715.130432	591.897766	-83.134933	804.310059	728.438538	-156.721695	769.391968	673.137817	-213.119965	780.707214	597.188293	-170.123688	662.908691	447.820892	-221.969223	691.984741	451.370850	-104.841225	684.740112	332.943512	-186.140152	693.696960	269.208466	-119.816757	674.868164	202.462708	-175.481949	657.147156	350.873749	-84.616081	600.648743	287.055603	-106.196487	655.315552	221.435089	-100.983627	649.318359	107.235947	-203.966446	634.128052	87.547226	-123.270149	577.673157	67.105614	-168.955505	783.120972	48.507038	-199.664032	790.550049	57.628551	-158.588608	770.392700	47.071095	-105.762077	777.205200	55.030907	-306.598907	781.542847	57.308281	-360.145294	754.103149	38.852978	-402.383331	573.618042	63.836929	-323.457275	644.652039	98.218933	-286.911926	625.559509	94.819130	-364.301086	694.800842	371.359344	-304.070160	709.579895	305.313843	-355.433746	675.752075	241.425980	-309.944305	656.473145	315.384552	-407.851807	599.799866	254.604340	-380.623016	648.338928	185.971405	-381.715668	666.373535	436.825592	-276.266266	677.675842	451.000946	-395.773376	675.752563	736.030090	-438.952545	733.516846	676.851990	-417.716461	687.609131	607.763489	-409.783966	783.420776	810.385376	-395.950806	800.232483	741.719727	-340.896881	772.799988	672.618713	-390.785461	673.006165	1404.953491	-386.154358	753.053955	1286.994751	-395.599884	602.211914	1247.344238	-383.598236	662.012329	1293.167847	-470.090302	735.540710	1292.404053	-511.733856	743.922913	1204.673340	-531.882324	814.350098	1134.340210	-528.717651	813.199158	1168.649414	-581.036438	892.768066	1111.351318	-646.530823	935.284729	1145.045898	-617.015564	897.316711	1149.486816	-630.389587	980.366516	1069.782104	-692.950073	1016.395081	1072.775757	-641.746521	641.970520	1396.900757	-103.991814	735.117798	1289.650269	-103.359505	598.532410	1243.514771	-98.990211	634.793457	1286.001587	-26.180239	701.820557	1294.927246	25.867836	710.731445	1213.590088	57.231556	774.413696	1125.976196	59.693069	782.402283	1175.692871	113.111954	885.223694	1101.789795	180.131607	888.247009	1146.011230	156.733398	925.676575	1138.999390	137.092987	955.514832	1070.519409	208.456558	1002.232788	1089.829468	162.594376	635.105774	96.519032	-325.606506	641.723206	97.391586	-163.618298	813.774628	1151.494812	-554.877045	778.407990	1150.834534	86.402512	697.533528	865.783762	-341.137583	698.402457	861.913421	-147.436794	672.024689	443.913269	-336.019821	677.446716	449.595871	-163.405224	677.632935	1267.169495	-389.599060	666.825104	1266.582520	-101.174858	998.380798	1071.278931	-667.348297	978.873810	1080.174438	185.525467	
317	2.633333	768.329407	1616.284424	-184.580475	775.300781	1617.251221	-290.642181	623.809021	1544.531738	-179.547531	621.780273	1545.629150	-318.991516	602.481262	1420.318726	-247.602814	603.242371	1125.555542	-250.574844	742.956665	1352.770630	-243.700729	797.935486	1146.967651	-243.025055	767.066589	941.937988	-107.296150	765.837402	947.376953	-378.649963	595.138855	971.951233	-183.677780	593.640320	983.564453	-294.500061	731.745239	719.415161	-58.039093	767.555115	652.185303	-96.741440	715.150513	591.885681	-83.099411	804.312317	728.415710	-156.711807	769.383057	673.116394	-213.097900	780.696533	597.159912	-170.077255	662.980225	447.846649	-221.978729	691.983032	451.381042	-104.805603	684.742004	332.960968	-186.133499	693.712769	269.197540	-119.800514	674.975891	202.461304	-175.434113	657.178772	350.873871	-84.614273	600.642273	287.044373	-106.196739	655.317383	221.409073	-100.961693	649.352417	107.234726	-203.927567	634.121399	87.542633	-123.244041	577.688293	67.080444	-168.988754	783.125488	48.549606	-199.682083	790.487549	57.615704	-158.595093	770.333618	47.064350	-105.720947	777.217224	55.036869	-306.590790	781.545288	57.279282	-360.116272	754.086182	38.848282	-402.396912	573.644897	63.852379	-323.498291	644.657104	98.212769	-286.902649	625.553772	94.809456	-364.329895	694.839172	371.331451	-304.073212	709.524902	305.258759	-355.435181	675.814758	241.444794	-309.985199	656.487366	315.390686	-407.863953	599.772034	254.573883	-380.584473	648.364746	185.977676	-381.754639	666.398071	436.796478	-276.219482	677.670715	451.000183	-395.799438	675.734375	736.022095	-438.924347	733.375732	676.669373	-417.516510	687.598694	607.747070	-409.779877	783.407898	810.379456	-395.950348	800.183350	741.779480	-340.851807	772.758484	672.607666	-390.768433	673.010071	1405.001465	-386.048492	753.106079	1287.105713	-395.542877	602.271240	1247.384033	-383.581116	662.015808	1293.293213	-470.058807	735.503113	1292.502930	-511.687897	743.921936	1204.768921	-531.831238	814.339478	1134.431885	-528.724731	813.214905	1168.829224	-580.988281	892.724365	1111.536499	-646.508118	935.245422	1145.178955	-617.031921	897.270752	1149.667114	-630.398499	980.328369	1069.989990	-693.000305	1016.390015	1072.970703	-641.803162	642.043335	1396.893433	-103.853394	735.185120	1289.659058	-103.269707	598.567932	1243.501953	-98.854286	634.820313	1286.072754	-25.840292	701.934509	1294.869507	25.971100	710.818542	1213.586548	57.362690	774.533081	1125.952881	59.728275	782.531921	1175.650024	113.196609	885.342407	1101.765137	180.147720	888.336304	1145.978027	156.765945	925.781067	1138.960327	137.102463	955.657288	1070.473389	208.447418	1002.385315	1089.856812	162.598801	635.105438	96.511112	-325.616272	641.736908	97.388680	-163.585804	813.777191	1151.630554	-554.856506	778.532501	1150.801453	86.462442	697.515174	865.790271	-341.127697	698.392559	861.907977	-147.437262	672.034393	443.898331	-336.009460	677.481628	449.613846	-163.392166	677.688660	1267.244873	-389.561996	666.876526	1266.580505	-101.061996	998.359192	1071.480347	-667.401733	979.021301	1080.165100	185.523109	
318	2.641667	768.339172	1616.282715	-184.479614	775.326538	1617.259033	-290.478027	623.835571	1544.526123	-179.394196	621.731140	1545.664917	-318.806793	602.507690	1420.297241	-247.461624	603.255920	1125.635742	-250.433624	743.003540	1352.803711	-243.605911	798.001343	1147.015869	-242.991852	767.123413	941.953369	-107.287849	765.843445	947.380493	-378.673706	595.141663	971.999756	-183.657867	593.641785	983.636841	-294.485291	731.738586	719.422913	-58.011948	767.556213	652.194275	-96.741257	715.117371	591.855042	-83.023361	804.304810	728.415588	-156.696182	769.364868	673.132080	-213.095642	780.750122	597.174683	-170.083466	662.952881	447.791840	-221.966614	692.001831	451.384369	-104.770096	684.744263	332.958984	-186.088699	693.708801	269.204102	-119.801247	674.958008	202.471222	-175.413559	657.163574	350.879211	-84.599510	600.636292	287.040710	-106.175781	655.238647	221.377838	-100.963562	649.305481	107.225105	-203.922913	634.156921	87.515991	-123.260902	577.695313	67.058929	-169.008133	783.163818	48.573742	-199.719055	790.505188	57.616364	-158.605606	770.360474	47.059231	-105.789482	777.228455	55.069328	-306.593079	781.559509	57.291180	-360.140594	754.092041	38.847633	-402.378876	573.616516	63.849861	-323.470734	644.589172	98.161972	-286.884705	625.564209	94.803207	-364.291351	694.825928	371.339264	-304.080444	709.553406	305.241913	-355.418884	675.750366	241.446686	-309.949097	656.484619	315.408203	-407.873779	599.786316	254.596436	-380.602600	648.331848	185.978912	-381.697693	666.402710	436.808472	-276.219330	677.668701	451.008453	-395.786469	675.725037	736.020935	-438.912048	733.477539	676.886658	-417.734863	687.596436	607.773987	-409.787598	783.341736	810.376831	-395.953217	800.188293	741.754761	-340.851715	772.727783	672.596436	-390.734344	673.017822	1405.067139	-385.910065	753.100647	1287.178833	-395.428040	602.234985	1247.411255	-383.414886	662.005371	1293.267700	-469.872437	735.500061	1292.609497	-511.570099	743.984375	1204.863403	-531.785706	814.414734	1134.534546	-528.706909	813.207764	1168.949585	-580.977051	892.693359	1111.682495	-646.560974	935.247131	1145.332153	-617.029602	897.280090	1149.825806	-630.387390	980.276794	1070.165527	-693.027344	1016.356934	1073.136963	-641.821594	642.079651	1396.884399	-103.742134	735.275574	1289.667847	-103.159401	598.603943	1243.508911	-98.740837	634.838684	1286.057007	-25.663868	701.975952	1294.856567	26.093161	710.932861	1213.524780	57.425995	774.620361	1125.922241	59.798573	782.639648	1175.604126	113.269402	885.488220	1101.715698	180.151367	888.471130	1145.947754	156.776108	925.896973	1138.951782	137.129944	955.762573	1070.498779	208.420639	1002.500854	1089.850098	162.581909	635.076691	96.482590	-325.588028	641.731201	97.370548	-163.591908	813.811249	1151.742065	-554.841980	778.630005	1150.763184	86.533987	697.496912	865.804997	-341.129156	698.410536	861.931189	-147.417571	672.035706	443.908463	-336.002899	677.477356	449.588104	-163.368355	677.667816	1267.295044	-389.421463	666.939758	1266.588379	-100.950119	998.316864	1071.651245	-667.424469	979.131714	1080.174438	185.501274	
